<svg width="254" height="254" viewBox="0 0 254 254" fill="none" xmlns="http://www.w3.org/2000/svg">
<path fill-rule="evenodd" clip-rule="evenodd" d="M126.661 253.322C196.639 253.322 253.322 196.617 253.322 126.611C253.322 56.6049 196.539 0 126.661 0C111.066 0 96.1704 2.80024 82.4746 7.90068H83.2743V61.0053C90.1722 52.4045 110.566 41.1036 132.259 41.1036C172.447 41.1036 209.036 77.7067 209.036 122.711C209.036 167.715 172.447 203.818 127.461 203.818C82.4746 203.818 48.4851 167.414 48.4851 122.711V26.9023C18.9941 50.1043 0 86.2075 0 126.711C0 196.617 56.6825 253.322 126.661 253.322Z" fill="#23346F"></path>
<path fill-rule="evenodd" clip-rule="evenodd" d="M129.16 73.6064C101.469 73.6064 79.0757 96.0083 79.0757 123.711C79.0757 151.413 101.469 173.815 129.16 173.815C156.852 173.815 179.245 151.413 179.245 123.711C179.245 96.0083 156.852 73.6064 129.16 73.6064ZM129.16 142.912C118.564 142.912 109.966 134.312 109.966 123.711C109.966 113.11 118.564 104.509 129.16 104.509C139.757 104.509 148.354 113.11 148.354 123.711C148.354 134.312 139.757 142.912 129.16 142.912Z" fill="#23346F"></path>
</svg>